<svg width="48" height="43" viewBox="0 0 48 43" fill="none" xmlns="http://www.w3.org/2000/svg">
<mask id="path-1-inside-1_144_2386" fill="white">
<path d="M17.971 2.52818H17.2535V0H20.4991C20.4991 1.40075 19.3717 2.52818 17.971 2.52818ZM17.971 3.0919H17.2535V5.62008H20.4991C20.4991 4.21933 19.3717 3.0919 17.971 3.0919ZM29.8602 2.52818H30.7485V0H27.3321C27.3321 1.40075 28.4595 2.52818 29.8602 2.52818ZM29.8602 3.0919H30.7485V5.62008H27.3321C27.3321 4.21933 28.4595 3.0919 29.8602 3.0919ZM9.59722 13.22C9.92182 13.0413 10.178 12.76 10.3255 12.4201C10.473 12.0802 10.5036 11.7009 10.4125 11.3418C10.3214 10.9826 10.1137 10.6638 9.82192 10.4354C9.53018 10.207 9.17089 10.0818 8.80036 10.0794C8.42983 10.0771 8.069 10.1978 7.77442 10.4225C7.47983 10.6473 7.26813 10.9634 7.1725 11.3214C7.07687 11.6794 7.10271 12.059 7.24598 12.4007C7.38924 12.7424 7.64182 13.027 7.96415 13.2097C7.75742 13.3443 7.58757 13.5284 7.47004 13.7453C7.3525 13.9622 7.291 14.205 7.29111 14.4516C7.29111 16.1041 7.94742 17.6888 9.1157 18.8574C10.284 20.0261 11.8686 20.6828 13.521 20.6833C13.9143 20.6833 14.2914 20.527 14.5695 20.249C14.8476 19.9709 15.0038 19.5938 15.0038 19.2005C15.0038 18.8073 14.8476 18.4301 14.5695 18.1521C14.2914 17.874 13.9143 17.7178 13.521 17.7178C12.6549 17.7173 11.8244 17.3731 11.212 16.7606C10.5996 16.1482 10.2553 15.3177 10.2549 14.4516C10.2549 13.9392 9.99353 13.4848 9.59722 13.22ZM38.3587 25.0427C37.2654 25.0939 36.6846 23.7956 37.4533 23.0269L44.85 15.6303C45.6187 14.8616 46.9169 15.4595 46.8657 16.5357C46.7803 18.688 45.9091 20.8062 44.2692 22.4461C42.6293 24.086 40.5111 24.9572 38.3587 25.0427ZM36.2063 26.1701C35.1131 26.1701 34.6177 27.5025 35.4205 28.237C37.062 29.7408 39.2074 30.5749 41.4335 30.5749C43.6596 30.5749 45.805 29.7408 47.4465 28.237C48.2493 27.5025 47.7369 26.1701 46.6607 26.1701H36.2063ZM31.4489 31.1667C31.3971 30.9881 31.3877 30.8 31.4213 30.6172C31.4549 30.4344 31.5307 30.2619 31.6426 30.1135C31.7546 29.9651 31.8995 29.8449 32.0661 29.7623C32.2326 29.6797 32.4161 29.6371 32.602 29.6378C34.7543 29.6549 36.9067 30.4407 38.5978 32.0293C40.289 33.618 41.2456 35.702 41.4164 37.8373C41.5018 38.9135 40.2207 39.5455 39.4349 38.811L31.7837 31.6877C32.5217 32.9278 32.9726 34.3611 33.0307 35.907C33.1161 38.2302 32.3133 40.3655 30.9125 42.0054C30.2121 42.8253 28.8626 42.3812 28.8285 41.2879L28.4356 30.8506C28.4278 30.6119 28.4923 30.3763 28.6206 30.1748C28.7488 29.9732 28.9349 29.8151 29.1545 29.7209C29.3741 29.6268 29.617 29.6012 29.8514 29.6473C30.0858 29.6934 30.3008 29.8092 30.4684 29.9794C30.8271 30.3467 31.1568 30.743 31.4489 31.1667ZM12.3082 28.3395C13.094 27.605 12.5986 26.2897 11.5224 26.2897H1.17052C0.0943336 26.2897 -0.401053 27.605 0.384733 28.3395C2.0103 29.8343 4.13809 30.6639 6.34646 30.6639C8.55483 30.6639 10.6826 29.8343 12.3082 28.3395ZM9.38711 25.1622C10.4633 25.2135 11.0441 23.9323 10.2754 23.1636L2.94708 15.8182C2.17837 15.0666 0.897202 15.6474 0.948449 16.7236C1.03386 18.8589 1.90506 20.96 3.52788 22.5828C5.1507 24.2056 7.25182 25.0768 9.38711 25.1622ZM15.0755 29.7061C16.1517 29.7061 16.6812 31.0044 15.8955 31.7389L8.31092 38.811C7.52514 39.5284 6.26105 38.9135 6.34646 37.8373C6.51728 35.702 7.43972 33.6351 9.13087 32.0635C10.8049 30.509 12.9402 29.7232 15.0755 29.7061ZM17.3475 30.1844C17.515 30.0142 17.7301 29.8984 17.9645 29.8523C18.1989 29.8062 18.4417 29.8318 18.6613 29.9259C18.8809 30.02 19.067 30.1782 19.1953 30.3798C19.3235 30.5813 19.388 30.8169 19.3803 31.0556L18.9874 41.4929C18.9532 42.5862 17.6037 43.0303 16.9033 42.2104C15.4533 40.5176 14.6966 38.3392 14.7851 36.112C14.8686 33.8854 15.7828 31.7707 17.3475 30.1844ZM40.2685 14.4516C40.2685 14.2064 40.2076 13.9651 40.0914 13.7492C39.9751 13.5334 39.807 13.3498 39.6023 13.2149C39.9258 13.0341 40.1801 12.7512 40.3255 12.4104C40.4709 12.0696 40.4992 11.6901 40.4058 11.3316C40.3124 10.973 40.1027 10.6555 39.8095 10.4289C39.5164 10.2023 39.1563 10.0794 38.7857 10.0794C38.4152 10.0794 38.0551 10.2023 37.762 10.4289C37.4688 10.6555 37.2591 10.973 37.1657 11.3316C37.0723 11.6901 37.1006 12.0696 37.246 12.4104C37.3914 12.7512 37.6457 13.0341 37.9692 13.2149C37.7645 13.3498 37.5964 13.5334 37.4801 13.7492C37.3639 13.9651 37.303 14.2064 37.303 14.4516C37.303 15.3179 36.9589 16.1486 36.3464 16.7611C35.7339 17.3737 34.9031 17.7178 34.0369 17.7178C33.6436 17.7178 33.2665 17.874 32.9884 18.1521C32.7103 18.4301 32.5541 18.8073 32.5541 19.2005C32.5541 19.5938 32.7103 19.9709 32.9884 20.249C33.2665 20.527 33.6436 20.6833 34.0369 20.6833C35.6896 20.6833 37.2746 20.0267 38.4433 18.8581C39.6119 17.6894 40.2685 16.1044 40.2685 14.4516Z"/>
</mask>
<path d="M17.971 2.52818H17.2535V0H20.4991C20.4991 1.40075 19.3717 2.52818 17.971 2.52818ZM17.971 3.0919H17.2535V5.62008H20.4991C20.4991 4.21933 19.3717 3.0919 17.971 3.0919ZM29.8602 2.52818H30.7485V0H27.3321C27.3321 1.40075 28.4595 2.52818 29.8602 2.52818ZM29.8602 3.0919H30.7485V5.62008H27.3321C27.3321 4.21933 28.4595 3.0919 29.8602 3.0919ZM9.59722 13.22C9.92182 13.0413 10.178 12.76 10.3255 12.4201C10.473 12.0802 10.5036 11.7009 10.4125 11.3418C10.3214 10.9826 10.1137 10.6638 9.82192 10.4354C9.53018 10.207 9.17089 10.0818 8.80036 10.0794C8.42983 10.0771 8.069 10.1978 7.77442 10.4225C7.47983 10.6473 7.26813 10.9634 7.1725 11.3214C7.07687 11.6794 7.10271 12.059 7.24598 12.4007C7.38924 12.7424 7.64182 13.027 7.96415 13.2097C7.75742 13.3443 7.58757 13.5284 7.47004 13.7453C7.3525 13.9622 7.291 14.205 7.29111 14.4516C7.29111 16.1041 7.94742 17.6888 9.1157 18.8574C10.284 20.0261 11.8686 20.6828 13.521 20.6833C13.9143 20.6833 14.2914 20.527 14.5695 20.249C14.8476 19.9709 15.0038 19.5938 15.0038 19.2005C15.0038 18.8073 14.8476 18.4301 14.5695 18.1521C14.2914 17.874 13.9143 17.7178 13.521 17.7178C12.6549 17.7173 11.8244 17.3731 11.212 16.7606C10.5996 16.1482 10.2553 15.3177 10.2549 14.4516C10.2549 13.9392 9.99353 13.4848 9.59722 13.22ZM38.3587 25.0427C37.2654 25.0939 36.6846 23.7956 37.4533 23.0269L44.85 15.6303C45.6187 14.8616 46.9169 15.4595 46.8657 16.5357C46.7803 18.688 45.9091 20.8062 44.2692 22.4461C42.6293 24.086 40.5111 24.9572 38.3587 25.0427ZM36.2063 26.1701C35.1131 26.1701 34.6177 27.5025 35.4205 28.237C37.062 29.7408 39.2074 30.5749 41.4335 30.5749C43.6596 30.5749 45.805 29.7408 47.4465 28.237C48.2493 27.5025 47.7369 26.1701 46.6607 26.1701H36.2063ZM31.4489 31.1667C31.3971 30.9881 31.3877 30.8 31.4213 30.6172C31.4549 30.4344 31.5307 30.2619 31.6426 30.1135C31.7546 29.9651 31.8995 29.8449 32.0661 29.7623C32.2326 29.6797 32.4161 29.6371 32.602 29.6378C34.7543 29.6549 36.9067 30.4407 38.5978 32.0293C40.289 33.618 41.2456 35.702 41.4164 37.8373C41.5018 38.9135 40.2207 39.5455 39.4349 38.811L31.7837 31.6877C32.5217 32.9278 32.9726 34.3611 33.0307 35.907C33.1161 38.2302 32.3133 40.3655 30.9125 42.0054C30.2121 42.8253 28.8626 42.3812 28.8285 41.2879L28.4356 30.8506C28.4278 30.6119 28.4923 30.3763 28.6206 30.1748C28.7488 29.9732 28.9349 29.8151 29.1545 29.7209C29.3741 29.6268 29.617 29.6012 29.8514 29.6473C30.0858 29.6934 30.3008 29.8092 30.4684 29.9794C30.8271 30.3467 31.1568 30.743 31.4489 31.1667ZM12.3082 28.3395C13.094 27.605 12.5986 26.2897 11.5224 26.2897H1.17052C0.0943336 26.2897 -0.401053 27.605 0.384733 28.3395C2.0103 29.8343 4.13809 30.6639 6.34646 30.6639C8.55483 30.6639 10.6826 29.8343 12.3082 28.3395ZM9.38711 25.1622C10.4633 25.2135 11.0441 23.9323 10.2754 23.1636L2.94708 15.8182C2.17837 15.0666 0.897202 15.6474 0.948449 16.7236C1.03386 18.8589 1.90506 20.96 3.52788 22.5828C5.1507 24.2056 7.25182 25.0768 9.38711 25.1622ZM15.0755 29.7061C16.1517 29.7061 16.6812 31.0044 15.8955 31.7389L8.31092 38.811C7.52514 39.5284 6.26105 38.9135 6.34646 37.8373C6.51728 35.702 7.43972 33.6351 9.13087 32.0635C10.8049 30.509 12.9402 29.7232 15.0755 29.7061ZM17.3475 30.1844C17.515 30.0142 17.7301 29.8984 17.9645 29.8523C18.1989 29.8062 18.4417 29.8318 18.6613 29.9259C18.8809 30.02 19.067 30.1782 19.1953 30.3798C19.3235 30.5813 19.388 30.8169 19.3803 31.0556L18.9874 41.4929C18.9532 42.5862 17.6037 43.0303 16.9033 42.2104C15.4533 40.5176 14.6966 38.3392 14.7851 36.112C14.8686 33.8854 15.7828 31.7707 17.3475 30.1844ZM40.2685 14.4516C40.2685 14.2064 40.2076 13.9651 40.0914 13.7492C39.9751 13.5334 39.807 13.3498 39.6023 13.2149C39.9258 13.0341 40.1801 12.7512 40.3255 12.4104C40.4709 12.0696 40.4992 11.6901 40.4058 11.3316C40.3124 10.973 40.1027 10.6555 39.8095 10.4289C39.5164 10.2023 39.1563 10.0794 38.7857 10.0794C38.4152 10.0794 38.0551 10.2023 37.762 10.4289C37.4688 10.6555 37.2591 10.973 37.1657 11.3316C37.0723 11.6901 37.1006 12.0696 37.246 12.4104C37.3914 12.7512 37.6457 13.0341 37.9692 13.2149C37.7645 13.3498 37.5964 13.5334 37.4801 13.7492C37.3639 13.9651 37.303 14.2064 37.303 14.4516C37.303 15.3179 36.9589 16.1486 36.3464 16.7611C35.7339 17.3737 34.9031 17.7178 34.0369 17.7178C33.6436 17.7178 33.2665 17.874 32.9884 18.1521C32.7103 18.4301 32.5541 18.8073 32.5541 19.2005C32.5541 19.5938 32.7103 19.9709 32.9884 20.249C33.2665 20.527 33.6436 20.6833 34.0369 20.6833C35.6896 20.6833 37.2746 20.0267 38.4433 18.8581C39.6119 17.6894 40.2685 16.1044 40.2685 14.4516Z" fill="white" stroke="#1A8BCA" stroke-width="4" mask="url(#path-1-inside-1_144_2386)"/>
<path d="M18.7905 12.9576C18.9783 12.9576 19.1587 13.032 19.2915 13.1646C19.4243 13.2974 19.4985 13.4779 19.4985 13.6656C19.4985 13.8535 19.4243 14.0338 19.2915 14.1666C19.1587 14.2994 18.9784 14.3736 18.7905 14.3736C18.6028 14.3736 18.4223 14.2994 18.2896 14.1666C18.1569 14.0338 18.0825 13.8533 18.0825 13.6656C18.0826 13.4779 18.1568 13.2974 18.2896 13.1646C18.4223 13.0319 18.6028 12.9577 18.7905 12.9576ZM29.0405 12.9576C29.228 12.9577 29.4078 13.0322 29.5405 13.1646C29.6733 13.2974 29.7485 13.4779 29.7485 13.6656C29.7485 13.8535 29.6733 14.0338 29.5405 14.1666C29.4078 14.2992 29.2281 14.3735 29.0405 14.3736C28.8527 14.3736 28.6724 14.2994 28.5396 14.1666C28.4067 14.0338 28.3315 13.8535 28.3315 13.6656C28.3316 13.4779 28.4068 13.2974 28.5396 13.1646C28.6723 13.032 28.8528 12.9576 29.0405 12.9576Z" fill="#533566" stroke="#1A8BCA" stroke-width="2"/>
<path d="M23.9155 14.666C28.1853 14.666 31.8208 14.8771 34.3823 16.0078C35.6313 16.5592 36.5849 17.3134 37.2358 18.3447C37.8895 19.3804 38.2896 20.7772 38.2896 22.6973C38.2895 30.3346 31.884 36.5811 23.9155 36.5811C15.9472 36.5809 9.54151 30.3346 9.5415 22.6973C9.5415 20.7821 9.9417 19.3875 10.5952 18.3525C11.2462 17.3217 12.2004 16.5661 13.4497 16.0137C16.0113 14.881 19.6469 14.666 23.9155 14.666ZM16.937 3.97363C16.9333 5.60075 16.2843 7.16036 15.1323 8.30957C13.9799 9.45912 12.4183 10.1042 10.7905 10.1035H7.88232C8.35109 5.32282 12.1458 1.51793 16.937 1.04883V3.97363ZM30.895 1.04883C35.686 1.51811 39.48 5.32299 39.9487 10.1035H37.0415C35.4138 10.1043 33.8522 9.45906 32.6997 8.30957C31.6192 7.2316 30.9808 5.79251 30.9028 4.27539L30.895 3.97168V1.04883Z" fill="white" stroke="#1A8BCA" stroke-width="2"/>
</svg>
